<svg width="30" height="33" viewBox="0 0 30 33" fill="none" xmlns="http://www.w3.org/2000/svg">
<path d="M15 0L1.5 4.5V15.75C1.5 23.355 7.245 30.465 15 33C22.755 30.465 28.5 23.355 28.5 15.75V4.5L15 0ZM27 15.75C27 22.59 21.945 28.995 15 31.485C8.055 28.995 3 22.59 3 15.75V5.58L15 1.575L27 5.58V15.75Z" fill="black"/>
<path d="M12.555 19.605L7.83 14.88L6.77 15.94L12.555 21.725L23.235 11.045L22.175 9.985L12.555 19.605Z" fill="black"/>
<circle cx="24.5" cy="7" r="1.5" fill="#B2FFA6"/>
<circle cx="6" cy="25" r="1.2" fill="#B2FFA6"/>
</svg>
